<svg viewBox="0 0 95 95" fill="none" xmlns="http://www.w3.org/2000/svg"><g clip-path="url(#clip0_50_529)"><path d="M86.6412 12.2123C87.1014 12.1868 87.5195 12.4791 87.6534 12.9201L91.7052 26.2575C91.9813 27.1663 90.9538 27.912 90.1754 27.3677L72.2057 14.8023C71.4273 14.258 71.775 13.037 72.7234 12.9843L86.6412 12.2123Z" fill="#EE4D2D"></path><path fill-rule="evenodd" clip-rule="evenodd" d="M25.2956 57.2884L8.23523 81.336C7.5961 82.2369 6.34768 82.449 5.44679 81.8099L4.6312 81.2313C3.73031 80.5922 3.51811 79.3438 4.15724 78.4429L22.0855 53.172C23.204 51.5954 25.3887 51.2241 26.9653 52.3425L36.3446 58.9966L48.5213 41.8329C49.6398 40.2563 51.8245 39.885 53.4011 41.0035L60.3337 45.9217L80.5212 17.4662L84.5992 20.3593L63.5437 50.0382C62.4253 51.6148 60.2405 51.9861 58.664 50.8676L51.7314 45.9494L39.5547 63.1131C38.4362 64.6897 36.2515 65.061 34.6749 63.9426L25.2956 57.2884Z" fill="url(#paint0_linear_50_529)"></path><rect x="11" y="69" width="12" height="16" rx="2" fill="white"></rect><rect x="27" y="64" width="12" height="21" rx="2" fill="white"></rect><rect x="59" y="53" width="12" height="32" rx="2" fill="white"></rect><rect x="43" y="59" width="12" height="26" rx="2" fill="white"></rect><rect x="75" y="43" width="12" height="42" rx="2" fill="white"></rect><path fill-rule="evenodd" clip-rule="evenodd" d="M48.1494 47.5815C54.4636 47.5815 59.5811 42.463 59.5798 36.149C59.5785 29.835 54.4587 24.7165 48.1446 24.7165C41.8304 24.7165 36.7128 29.835 36.7142 36.149C36.7155 42.463 41.8352 47.5815 48.1494 47.5815Z" fill="#FFBB00"></path><path fill-rule="evenodd" clip-rule="evenodd" d="M48.1495 47.5815C54.4638 47.5815 59.5814 42.463 59.5801 36.149C59.5787 29.835 54.4589 24.7165 48.1447 24.7165C41.8305 24.7165 36.7128 29.835 36.7142 36.149C36.7155 42.463 41.8353 47.5815 48.1495 47.5815Z" stroke="#FFDB7A" stroke-width="4"></path><path d="M51.2216 38.6737C51.1534 38.4195 51.0533 38.2041 50.9212 38.0276C50.7948 37.8496 50.6135 37.7044 50.3775 37.5921C50.1416 37.4797 49.828 37.3942 49.4369 37.3356C49.0499 37.2697 48.5661 37.2268 47.9855 37.2068C47.3496 37.1835 46.7535 37.1282 46.1973 37.0411C45.6453 36.9469 45.1463 36.8021 44.7004 36.6067C44.2529 36.4058 43.876 36.1405 43.5696 35.8109C43.2617 35.4756 43.0396 35.0538 42.9033 34.5454C42.7685 34.0427 42.7503 33.5572 42.8487 33.0888C42.9528 32.619 43.1596 32.1821 43.4691 31.7783C43.7827 31.3673 44.1859 31.0081 44.6786 30.7005C45.1698 30.3872 45.7402 30.1436 46.3898 29.9695C47.3049 29.7243 48.1384 29.6826 48.8902 29.8444C49.6476 30.0047 50.2808 30.3224 50.7896 30.7976C51.3042 31.2712 51.6538 31.8526 51.8386 32.5417L49.7288 33.107C49.6197 32.7004 49.436 32.3651 49.1775 32.1014C48.9232 31.8305 48.5968 31.6516 48.198 31.5647C47.805 31.4762 47.343 31.5032 46.812 31.6454C46.3092 31.7802 45.9117 31.9684 45.6193 32.2102C45.3269 32.452 45.1337 32.7248 45.0395 33.0285C44.9454 33.3323 44.9422 33.6479 45.0301 33.9755C45.0922 34.2071 45.2027 34.4046 45.3615 34.5679C45.5188 34.7255 45.7296 34.8567 45.9938 34.9615C46.2565 35.0606 46.5735 35.1361 46.9446 35.1881C47.3158 35.24 47.7447 35.2703 48.2315 35.2792C48.9695 35.2994 49.6261 35.3656 50.2011 35.4779C50.7746 35.5846 51.2725 35.7478 51.6948 35.9677C52.117 36.1875 52.4659 36.4725 52.7414 36.8225C53.0154 37.1668 53.219 37.5875 53.3523 38.0846C53.4917 38.6042 53.5129 39.1011 53.416 39.5751C53.3176 40.0434 53.1129 40.4767 52.8019 40.8748C52.495 41.2658 52.0916 41.613 51.5917 41.9165C51.096 42.2128 50.5177 42.4495 49.8568 42.6266C49.2636 42.7855 48.6578 42.8631 48.0392 42.8593C47.4262 42.8541 46.8422 42.7532 46.287 42.5569C45.7303 42.3549 45.2484 42.0481 44.8413 41.6365C44.4327 41.2193 44.1406 40.683 43.9649 40.0278L46.0916 39.4579C46.1992 39.859 46.3586 40.1825 46.5699 40.4286C46.7869 40.6732 47.0439 40.8526 47.3409 40.9667C47.6364 41.0753 47.9593 41.128 48.3097 41.1249C48.6657 41.1203 49.0329 41.0673 49.4114 40.9659C49.9085 40.8327 50.3048 40.6509 50.6002 40.4204C50.9012 40.1883 51.1024 39.9225 51.2037 39.6229C51.305 39.3233 51.311 39.0069 51.2216 38.6737Z" fill="white"></path><rect opacity="0.4" x="11" y="69" width="12" height="16" rx="2" fill="#EE4D2D"></rect><rect opacity="0.4" x="27" y="64" width="12" height="21" rx="2" fill="#EE4D2D"></rect><rect opacity="0.4" x="59" y="53" width="12" height="32" rx="2" fill="#EE4D2D"></rect><rect opacity="0.4" x="43" y="59" width="12" height="26" rx="2" fill="#EE4D2D"></rect><rect opacity="0.4" x="75" y="43" width="12" height="42" rx="2" fill="#EE4D2D"></rect><circle cx="17.5" cy="43.5" r="2.5" stroke="#F1BC53" stroke-width="2"></circle><path fill-rule="evenodd" clip-rule="evenodd" d="M28 9C28 8.44772 27.5523 8 27 8C26.4477 8 26 8.44772 26 9L26 12H23C22.4477 12 22 12.4477 22 13C22 13.5523 22.4477 14 23 14H26L26 17C26 17.5523 26.4477 18 27 18C27.5523 18 28 17.5523 28 17V14H31C31.5523 14 32 13.5523 32 13C32 12.4477 31.5523 12 31 12H28V9Z" fill="#E7A294"></path><path d="M7.5 18L8.44532 20.5547L11 21.5L8.44532 22.4453L7.5 25L6.55468 22.4453L4 21.5L6.55468 20.5547L7.5 18Z" fill="#7899CD"></path></g><defs><linearGradient id="paint0_linear_50_529" x1="72.2557" y1="35.2959" x2="-0.875682" y2="95.6305" gradientUnits="userSpaceOnUse"><stop stop-color="#EE4D2D"></stop><stop offset="1" stop-color="#EE4D2D" stop-opacity="0.4"></stop></linearGradient><clipPath id="clip0_50_529"><rect width="95" height="95" fill="white"></rect></clipPath></defs></svg>